<?xml version="1.0" encoding="UTF-8" standalone="no"?>
<!DOCTYPE svg PUBLIC "-//W3C//DTD SVG 1.1//EN" "http://www.w3.org/Graphics/SVG/1.1/DTD/svg11.dtd">
<svg version="1.1" xmlns="http://www.w3.org/2000/svg" xmlns:xlink="http://www.w3.org/1999/xlink" preserveAspectRatio="xMidYMid meet" viewBox="0 0 500 500" width="500" height="500"><defs><path d="M243.33 50L243.33 396.68L336.66 396.68L336.66 396.68L341.59 396.91L346.46 397.59L351.26 398.71L355.93 400.28L360.44 402.27L364.74 404.67L368.81 407.45L372.59 410.59L376.07 414.08L379.23 417.87L382.01 421.94L384.41 426.24L386.4 430.75L387.96 435.42L389.09 440.21L389.77 445.1L390 450.01L243.33 450.01L243.33 450.01L238.4 449.78L233.53 449.1L228.73 447.98L224.06 446.41L219.55 444.42L215.25 442.02L211.19 439.24L207.4 436.1L203.92 432.61L200.76 428.82L197.98 424.75L195.58 420.45L193.6 415.94L192.03 411.27L190.9 406.48L190.22 401.6L189.99 396.68L189.99 103.34L189.99 103.34L190.22 98.41L190.9 93.54L192.03 88.74L193.6 84.07L195.58 79.56L197.98 75.26L200.76 71.19L203.92 67.41L207.4 63.93L211.19 60.77L215.25 57.99L219.55 55.59L224.06 53.6L228.73 52.04L233.53 50.91L238.4 50.23L243.33 50" id="d1xmRAhUQU"></path><path d="M243.33 50L243.33 103.34L269.99 103.34L269.99 103.34L275.06 103.58L280.09 104.3L285.02 105.5L289.82 107.16L294.44 109.26L298.83 111.8L302.96 114.75L306.81 118.07L310.3 121.75L313.44 125.73L316.19 130L318.51 134.51L320.4 139.23L321.83 144.1L322.79 149.09L323.27 154.13L323.27 159.21L322.79 164.26L321.83 169.24L320.4 174.12L318.51 178.83L316.19 183.33L313.44 187.61L310.3 191.6L306.81 195.27L302.96 198.6L298.83 201.53L294.44 204.07L289.82 206.18L285.02 207.85L280.09 209.04L275.06 209.77L269.99 210.01L243.33 210.01L243.33 263.34L269.99 263.34L269.99 263.34L277.27 263.09L284.52 262.34L291.69 261.12L298.78 259.38L305.72 257.18L312.5 254.5L319.07 251.38L325.42 247.82L331.52 243.82L337.31 239.42L342.8 234.63L347.96 229.47L352.74 223.99L357.15 218.19L361.14 212.09L364.7 205.75L367.83 199.17L370.51 192.39L372.71 185.45L374.44 178.38L375.67 171.19L376.42 163.96L376.66 156.67L376.42 149.39L375.67 142.14L374.44 134.97L372.71 127.89L370.51 120.95L367.83 114.18L364.7 107.59L361.14 101.25L357.15 95.16L352.74 89.35L347.96 83.86L342.8 78.72L337.31 73.92L331.52 69.53L325.42 65.53L319.07 61.96L312.5 58.83L305.72 56.16L298.78 53.96L291.69 52.23L284.52 51L277.27 50.26L269.99 50L243.33 50" id="bmdYbp1Aw"></path><path d="M243.33 50L90 50L90 50L90.22 54.93L90.91 59.8L92.03 64.6L93.6 69.27L95.59 73.78L97.98 78.08L100.77 82.14L103.91 85.93L107.4 89.42L111.19 92.57L115.25 95.35L119.56 97.75L124.07 99.73L128.74 101.3L133.52 102.42L138.41 103.11L143.33 103.34L189.99 103.34L189.99 103.34L190.22 98.41L190.9 93.54L192.03 88.74L193.6 84.07L195.58 79.56L197.98 75.26L200.76 71.19L203.92 67.41L207.4 63.93L211.19 60.77L215.25 57.99L219.55 55.59L224.06 53.6L228.73 52.04L233.53 50.91L238.4 50.23L243.33 50" id="i16OoqSR4t"></path></defs><g><g><g><use xlink:href="#d1xmRAhUQU" opacity="1" fill="#009bd4" fill-opacity="1"></use><g><use xlink:href="#d1xmRAhUQU" opacity="1" fill-opacity="0" stroke="#000000" stroke-width="0.5" stroke-opacity="0"></use></g></g><g><use xlink:href="#bmdYbp1Aw" opacity="1" fill="#64bddf" fill-opacity="1"></use><g><use xlink:href="#bmdYbp1Aw" opacity="1" fill-opacity="0" stroke="#000000" stroke-width="0.5" stroke-opacity="0"></use></g></g><g><use xlink:href="#i16OoqSR4t" opacity="1" fill="#64bddf" fill-opacity="1"></use><g><use xlink:href="#i16OoqSR4t" opacity="1" fill-opacity="0" stroke="#000000" stroke-width="0.5" stroke-opacity="0"></use></g></g></g></g></svg>