<?xml version="1.0" encoding="UTF-8" standalone="no"?>
<svg
   xmlns:dc="http://purl.org/dc/elements/1.1/"
   xmlns:cc="http://creativecommons.org/ns#"
   xmlns:rdf="http://www.w3.org/1999/02/22-rdf-syntax-ns#"
   xmlns:svg="http://www.w3.org/2000/svg"
   xmlns="http://www.w3.org/2000/svg"
   xmlns:xlink="http://www.w3.org/1999/xlink"
   xmlns:sodipodi="http://sodipodi.sourceforge.net/DTD/sodipodi-0.dtd"
   xmlns:inkscape="http://www.inkscape.org/namespaces/inkscape"
   width="1000"
   height="1000"
   viewBox="0 0 264.58333 264.58334"
   version="1.1"
   id="svg8"
   inkscape:version="1.0.2-2 (e86c870879, 2021-01-15)"
   sodipodi:docname="logo.svg">
  <defs
     id="defs2">
    <clipPath
       clipPathUnits="userSpaceOnUse"
       id="clipPath863">
      <use
         x="0"
         y="0"
         xlink:href="#g859"
         id="use865" />
    </clipPath>
  </defs>
  <sodipodi:namedview
     id="base"
     pagecolor="#ffffff"
     bordercolor="#666666"
     borderopacity="1.0"
     inkscape:pageopacity="0"
     inkscape:pageshadow="2"
     inkscape:zoom="0.831"
     inkscape:cx="500"
     inkscape:cy="496.99158"
     inkscape:document-units="mm"
     inkscape:current-layer="layer1"
     inkscape:document-rotation="0"
     showgrid="false"
     inkscape:window-width="1176"
     inkscape:window-height="751"
     inkscape:window-x="-6"
     inkscape:window-y="-6"
     inkscape:window-maximized="1"
     units="px" />
  <metadata
     id="metadata5">
    <rdf:RDF>
      <cc:Work
         rdf:about="">
        <dc:format>image/svg+xml</dc:format>
        <dc:type
           rdf:resource="http://purl.org/dc/dcmitype/StillImage" />
        <dc:title></dc:title>
      </cc:Work>
    </rdf:RDF>
  </metadata>
  <g
     inkscape:label="Layer 1"
     inkscape:groupmode="layer"
     id="layer1">
    <circle
       style="fill:#edecdd;fill-opacity:1;fill-rule:evenodd;stroke-width:0.315162"
       id="path10"
       cx="132.29167"
       cy="132.29167"
       r="132.29167" />
    <circle
       style="fill:#008000;fill-opacity:1;stroke:none;stroke-width:0.318702"
       id="path837"
       cx="132.29167"
       cy="132.29167"
       r="112.44791" />
    <g
       id="g861"
       clip-path="url(#clipPath863)" />
    <g
       aria-label="Stationery"
       id="text855"
       style="font-style:normal;font-weight:normal;font-size:26.4396px;line-height:1.25;font-family:sans-serif;fill:#edecdd;fill-opacity:1;stroke:none;stroke-width:0.264396">
      <path
         d="m 71.665846,185.43479 q -2.062288,0 -3.96594,-0.66099 -1.877211,-0.66099 -2.908356,-1.74501 l 0.766749,-1.50706 q 1.004705,1.00471 2.670399,1.63926 1.665695,0.60811 3.437148,0.60811 2.485323,0 3.727984,-0.89895 1.242661,-0.92539 1.242661,-2.37956 0,-1.11047 -0.687429,-1.77146 -0.66099,-0.66099 -1.639256,-1.0047 -0.978265,-0.37016 -2.723278,-0.79319 -2.088729,-0.52879 -3.33139,-1.0047 -1.242661,-0.50236 -2.141608,-1.50706 -0.872506,-1.00471 -0.872506,-2.72328 0,-1.4013 0.740308,-2.5382 0.740309,-1.16334 2.273806,-1.85077 1.533497,-0.68743 3.807302,-0.68743 1.586376,0 3.093434,0.44947 1.533496,0.42303 2.64396,1.18978 l -0.66099,1.55994 q -1.163343,-0.76675 -2.485323,-1.13691 -1.32198,-0.39659 -2.591081,-0.39659 -2.432443,0 -3.675104,0.95183 -1.216222,0.92538 -1.216222,2.406 0,1.11046 0.66099,1.79789 0.68743,0.66099 1.692135,1.03115 1.031144,0.34371 2.749718,0.76675 2.035849,0.50235 3.278511,1.0047 1.2691,0.47591 2.141607,1.48062 0.872507,0.97826 0.872507,2.6704 0,1.4013 -0.766748,2.56464 -0.740309,1.1369 -2.300246,1.82433 -1.559936,0.66099 -3.833742,0.66099 z"
         style="font-style:normal;font-variant:normal;font-weight:normal;font-stretch:normal;font-size:26.4396px;font-family:Montserrat;-inkscape-font-specification:Montserrat;fill:#edecdd;fill-opacity:1;stroke-width:0.264396"
         id="path850" />
      <path
         d="m 89.750526,184.43009 q -0.528792,0.47591 -1.32198,0.74031 -0.766748,0.23795 -1.612815,0.23795 -1.956531,0 -3.014115,-1.05758 -1.057584,-1.05759 -1.057584,-2.98768 V 172.9553 H 80.25871 v -1.58638 h 2.485322 v -3.04055 h 1.877212 v 3.04055 h 4.230336 v 1.58638 h -4.230336 v 8.30203 q 0,1.24267 0.608111,1.90366 0.63455,0.63455 1.797892,0.63455 0.581672,0 1.110464,-0.18508 0.555231,-0.18508 0.951825,-0.52879 z"
         style="font-style:normal;font-variant:normal;font-weight:normal;font-stretch:normal;font-size:26.4396px;font-family:Montserrat;-inkscape-font-specification:Montserrat;fill:#edecdd;fill-opacity:1;stroke-width:0.264396"
         id="path852" />
      <path
         d="m 98.026074,171.26317 q 2.723276,0 4.177456,1.37485 1.45418,1.34842 1.45418,4.01882 v 8.61931 h -1.79789 v -2.16804 q -0.63455,1.08402 -1.877216,1.69213 -1.216222,0.60811 -2.908356,0.60811 -2.326685,0 -3.701544,-1.11046 -1.374859,-1.11046 -1.374859,-2.9348 0,-1.77145 1.269101,-2.85547 1.29554,-1.08403 4.098138,-1.08403 h 4.415416 v -0.84606 q 0,-1.7979 -1.00471,-2.72328 -1.004703,-0.95183 -2.934794,-0.95183 -1.32198,0 -2.538201,0.44947 -1.216222,0.42304 -2.088729,1.18979 l -0.846067,-1.4013 q 1.057584,-0.89895 2.538202,-1.37486 1.480617,-0.50235 3.119873,-0.50235 z m -0.66099,12.66456 q 1.586376,0 2.723276,-0.71387 1.13691,-0.7403 1.69214,-2.11516 v -2.27381 h -4.362537 q -3.569346,0 -3.569346,2.48532 0,1.21623 0.925386,1.93009 0.925386,0.68743 2.591081,0.68743 z"
         style="font-style:normal;font-variant:normal;font-weight:normal;font-stretch:normal;font-size:26.4396px;font-family:Montserrat;-inkscape-font-specification:Montserrat;fill:#edecdd;fill-opacity:1;stroke-width:0.264396"
         id="path854" />
      <path
         d="m 116.08428,184.43009 q -0.5288,0.47591 -1.32198,0.74031 -0.76675,0.23795 -1.61282,0.23795 -1.95653,0 -3.01411,-1.05758 -1.05759,-1.05759 -1.05759,-2.98768 v -8.40779 h -2.48532 v -1.58638 h 2.48532 v -3.04055 h 1.87721 v 3.04055 h 4.23034 v 1.58638 h -4.23034 v 8.30203 q 0,1.24267 0.60811,1.90366 0.63455,0.63455 1.7979,0.63455 0.58167,0 1.11046,-0.18508 0.55523,-0.18508 0.95183,-0.52879 z"
         style="font-style:normal;font-variant:normal;font-weight:normal;font-stretch:normal;font-size:26.4396px;font-family:Montserrat;-inkscape-font-specification:Montserrat;fill:#edecdd;fill-opacity:1;stroke-width:0.264396"
         id="path856" />
      <path
         d="m 119.49494,171.36892 h 1.87721 v 13.90723 h -1.87721 z m 0.95182,-3.04055 q -0.58167,0 -0.97826,-0.39659 -0.39659,-0.3966 -0.39659,-0.95183 0,-0.52879 0.39659,-0.92539 0.39659,-0.39659 0.97826,-0.39659 0.58168,0 0.97827,0.39659 0.39659,0.37016 0.39659,0.89895 0,0.58167 -0.39659,0.97827 -0.39659,0.39659 -0.97827,0.39659 z"
         style="font-style:normal;font-variant:normal;font-weight:normal;font-stretch:normal;font-size:26.4396px;font-family:Montserrat;-inkscape-font-specification:Montserrat;fill:#edecdd;fill-opacity:1;stroke-width:0.264396"
         id="path858" />
      <path
         d="m 132.29168,185.40835 q -2.00941,0 -3.62222,-0.89894 -1.61282,-0.92539 -2.53821,-2.53821 -0.92538,-1.61281 -0.92538,-3.64866 0,-2.03585 0.92538,-3.64867 0.92539,-1.61281 2.53821,-2.51176 1.61281,-0.89894 3.62222,-0.89894 2.00941,0 3.62223,0.89894 1.61281,0.89895 2.51176,2.51176 0.92538,1.61282 0.92538,3.64867 0,2.03585 -0.92538,3.64866 -0.89895,1.61282 -2.51176,2.53821 -1.61282,0.89894 -3.62223,0.89894 z m 0,-1.66569 q 1.48062,0 2.64396,-0.66099 1.18978,-0.68743 1.85077,-1.93009 0.66099,-1.24267 0.66099,-2.82904 0,-1.58638 -0.66099,-2.82904 -0.66099,-1.24266 -1.85077,-1.90365 -1.16334,-0.68743 -2.64396,-0.68743 -1.48062,0 -2.6704,0.68743 -1.16334,0.66099 -1.85077,1.90365 -0.66099,1.24266 -0.66099,2.82904 0,1.58637 0.66099,2.82904 0.68743,1.24266 1.85077,1.93009 1.18978,0.66099 2.6704,0.66099 z"
         style="font-style:normal;font-variant:normal;font-weight:normal;font-stretch:normal;font-size:26.4396px;font-family:Montserrat;-inkscape-font-specification:Montserrat;fill:#edecdd;fill-opacity:1;stroke-width:0.264396"
         id="path860" />
      <path
         d="m 150.27058,171.26317 q 2.61752,0 4.15102,1.53349 1.55993,1.50706 1.55993,4.41542 v 8.06407 h -1.87721 v -7.879 q 0,-2.16804 -1.08402,-3.30495 -1.08403,-1.1369 -3.09344,-1.1369 -2.24736,0 -3.56934,1.34842 -1.29554,1.32198 -1.29554,3.6751 v 7.29733 h -1.87721 v -13.90723 h 1.79789 v 2.56465 q 0.76675,-1.26911 2.11517,-1.95654 1.37486,-0.71386 3.17275,-0.71386 z"
         style="font-style:normal;font-variant:normal;font-weight:normal;font-stretch:normal;font-size:26.4396px;font-family:Montserrat;-inkscape-font-specification:Montserrat;fill:#edecdd;fill-opacity:1;stroke-width:0.264396"
         id="path862" />
      <path
         d="m 173.24651,178.90421 h -11.63342 q 0.15863,2.16805 1.66569,3.51647 1.50706,1.32198 3.8073,1.32198 1.29554,0 2.37957,-0.44948 1.08402,-0.47591 1.87721,-1.37486 l 1.05758,1.21623 q -0.92538,1.11046 -2.32668,1.69213 -1.37486,0.58167 -3.04056,0.58167 -2.1416,0 -3.8073,-0.89894 -1.63925,-0.92539 -2.56464,-2.53821 -0.92539,-1.61281 -0.92539,-3.64866 0,-2.03585 0.87251,-3.64867 0.89895,-1.61281 2.43244,-2.51176 1.55994,-0.89894 3.49003,-0.89894 1.93009,0 3.46359,0.89894 1.5335,0.89895 2.406,2.51176 0.87251,1.58638 0.87251,3.64867 z m -6.71566,-6.02823 q -2.00941,0 -3.38427,1.29554 -1.34842,1.2691 -1.53349,3.33139 h 9.86197 q -0.18508,-2.06229 -1.55994,-3.33139 -1.34842,-1.29554 -3.38427,-1.29554 z"
         style="font-style:normal;font-variant:normal;font-weight:normal;font-stretch:normal;font-size:26.4396px;font-family:Montserrat;-inkscape-font-specification:Montserrat;fill:#edecdd;fill-opacity:1;stroke-width:0.264396"
         id="path864" />
      <path
         d="m 178.90454,174.0922 q 0.66099,-1.4013 1.95653,-2.11517 1.32198,-0.71386 3.25207,-0.71386 v 1.82433 l -0.44947,-0.0264 q -2.19449,0 -3.43715,1.34842 -1.24266,1.34842 -1.24266,3.78086 v 7.08581 h -1.87721 v -13.90723 h 1.79789 z"
         style="font-style:normal;font-variant:normal;font-weight:normal;font-stretch:normal;font-size:26.4396px;font-family:Montserrat;-inkscape-font-specification:Montserrat;fill:#edecdd;fill-opacity:1;stroke-width:0.264396"
         id="path866" />
      <path
         d="m 199.79178,171.36892 -6.95361,15.57293 q -0.84607,1.95653 -1.95653,2.77616 -1.11046,0.81962 -2.6704,0.81962 -1.00471,0 -1.87721,-0.31727 -0.87251,-0.31728 -1.50706,-0.95183 l 0.87251,-1.4013 q 1.05758,1.05759 2.5382,1.05759 0.95182,0 1.61281,-0.52879 0.68743,-0.5288 1.26911,-1.7979 l 0.60811,-1.34842 -6.21331,-13.88079 h 1.95653 l 5.23504,11.81851 5.23504,-11.81851 z"
         style="font-style:normal;font-variant:normal;font-weight:normal;font-stretch:normal;font-size:26.4396px;font-family:Montserrat;-inkscape-font-specification:Montserrat;fill:#edecdd;fill-opacity:1;stroke-width:0.264396"
         id="path868" />
    </g>
    <g
       inkscape:label="Clip"
       id="g859">
      <g
         aria-label="PDX"
         id="text841"
         style="font-style:normal;font-weight:normal;font-size:92.9802px;line-height:1.25;font-family:sans-serif;fill:#edecdd;fill-opacity:1;stroke:none;stroke-width:0.185959">
        <path
           d="m 60.464693,91.858988 q 8.647159,0 14.969812,2.882386 6.415634,2.882387 9.855902,8.182256 3.440267,5.29987 3.440267,12.55233 0,7.15947 -3.440267,12.55233 -3.440268,5.29987 -9.855902,8.18225 -6.322653,2.78941 -14.969812,2.78941 H 47.354485 v 17.94518 H 32.291692 V 91.858988 Z m -0.836822,34.867572 q 6.787555,0 10.320803,-2.88238 3.533247,-2.97537 3.533247,-8.36822 0,-5.48583 -3.533247,-8.36822 -3.533248,-2.97537 -10.320803,-2.97537 H 47.354485 v 22.59419 z"
           style="font-style:normal;font-variant:normal;font-weight:bold;font-stretch:normal;font-size:92.9802px;font-family:Montserrat;-inkscape-font-specification:'Montserrat Bold';fill:#edecdd;fill-opacity:1;stroke-width:0.185959"
           id="path843" />
        <path
           d="m 99.42323,91.858988 h 29.5677 q 10.59975,0 18.68902,4.091129 8.18226,3.998149 12.64531,11.343583 4.55603,7.34544 4.55603,17.10836 0,9.76292 -4.55603,17.10836 -4.46305,7.34543 -12.64531,11.43656 -8.08927,3.99815 -18.68902,3.99815 h -29.5677 z m 28.82386,52.719772 q 9.76292,0 15.5277,-5.39285 5.85775,-5.48583 5.85775,-14.78385 0,-9.29802 -5.85775,-14.69087 -5.76478,-5.48583 -15.5277,-5.48583 h -13.76107 v 40.3534 z"
           style="font-style:normal;font-variant:normal;font-weight:bold;font-stretch:normal;font-size:92.9802px;font-family:Montserrat;-inkscape-font-specification:'Montserrat Bold';fill:#edecdd;fill-opacity:1;stroke-width:0.185959"
           id="path845" />
        <path
           d="m 214.90434,156.94513 -15.71365,-22.59419 -15.43471,22.59419 H 166.46166 L 190.54353,123.84418 167.6704,91.858988 h 17.10836 l 14.96981,21.106502 14.69087,-21.106502 h 16.27154 l -22.68717,31.427312 24.26783,33.65883 z"
           style="font-style:normal;font-variant:normal;font-weight:bold;font-stretch:normal;font-size:92.9802px;font-family:Montserrat;-inkscape-font-specification:'Montserrat Bold';fill:#edecdd;fill-opacity:1;stroke-width:0.185959"
           id="path847" />
      </g>
    </g>
  </g>
</svg>
